<?xml version="1.0" standalone="no"?>
<!DOCTYPE svg PUBLIC "-//W3C//DTD SVG 20010904//EN"
 "http://www.w3.org/TR/2001/REC-SVG-20010904/DTD/svg10.dtd">
<svg version="1.0" xmlns="http://www.w3.org/2000/svg"
 width="613.000000pt" height="613.000000pt" viewBox="0 0 613.000000 613.000000"
 preserveAspectRatio="xMidYMid meet">
<metadata>
Created by potrace 1.11, written by Peter Selinger 2001-2013
</metadata>
<g transform="translate(0.000000,613.000000) scale(0.100000,-0.100000)"
fill="#000000" stroke="none">
<path d="M2654 6058 c-90 -87 -102 -105 -82 -125 20 -19 41 -8 83 43 20 24 41
44 46 44 5 0 9 -82 9 -198 l0 -197 170 -170 170 -170 0 -170 0 -170 105 -105
105 -105 0 -129 0 -130 -110 -111 c-93 -95 -110 -117 -110 -143 0 -40 -8 -40
-48 1 l-32 33 0 204 0 205 26 -28 c24 -26 44 -28 44 -4 0 14 -81 97 -95 97
-15 0 -95 -83 -95 -98 0 -19 32 -14 57 10 l23 21 0 -176 c0 -97 -3 -177 -6
-177 -4 0 -44 39 -90 88 l-83 87 -1 325 0 324 50 -49 c42 -41 53 -48 68 -39 9
6 18 22 20 35 2 19 -14 41 -76 102 -44 42 -88 77 -99 77 -20 0 -183 -158 -183
-177 0 -14 28 -43 41 -43 5 0 32 21 59 46 l50 47 0 -212 c0 -116 -1 -211 -2
-211 -2 0 -56 52 -120 115 l-118 114 0 208 0 209 45 44 45 44 0 -31 c0 -37 15
-50 36 -32 11 9 14 28 12 73 l-3 61 -72 3 c-68 3 -73 1 -73 -18 0 -16 6 -20
37 -20 l37 0 -52 -53 -52 -53 0 -199 c0 -177 -2 -197 -15 -179 -12 16 -14 87
-15 452 0 237 4 432 8 432 5 0 17 -9 27 -20 20 -22 35 -18 35 9 0 21 -70 91
-91 91 -8 0 -35 -20 -59 -45 -37 -38 -41 -46 -30 -60 12 -14 16 -13 42 11 l28
28 0 -362 c0 -199 -4 -362 -8 -362 -5 0 -20 13 -35 28 -24 25 -27 35 -27 102
l0 75 -122 122 c-119 119 -122 123 -91 123 37 0 50 14 33 35 -14 16 -106 21
-128 6 -9 -5 -12 -27 -10 -72 2 -51 6 -64 21 -67 14 -3 17 4 17 35 l0 38 120
-120 120 -120 0 -71 0 -71 55 -60 c51 -56 55 -65 55 -110 l0 -48 175 -175 175
-175 0 -100 0 -100 185 -185 185 -185 0 -525 0 -525 -75 76 -75 76 0 274 0
273 -62 63 -62 63 76 0 c84 0 108 12 108 55 0 45 -32 55 -181 55 -123 0 -139
-2 -163 -21 -26 -20 -26 -20 -26 -168 0 -131 2 -150 18 -164 23 -21 56 -22 76
-1 12 11 16 36 16 92 l0 76 45 -44 44 -43 3 -164 3 -163 -162 162 -163 163 0
209 0 210 44 -43 c45 -45 70 -50 90 -19 9 15 -2 31 -72 101 l-82 82 0 125 0
124 -195 196 c-194 195 -195 196 -195 240 l0 43 23 -21 c13 -12 29 -22 35 -22
26 0 10 38 -33 80 l-45 44 -45 -44 c-43 -42 -59 -80 -33 -80 6 0 22 10 35 22
l23 21 0 -54 0 -55 195 -195 195 -194 0 -110 c0 -73 -4 -115 -12 -123 -9 -9
-37 13 -123 98 l-112 110 -94 0 -94 0 -88 88 -87 87 0 155 0 155 -87 87 -88
88 53 0 c62 0 92 13 92 40 0 31 -32 40 -140 40 -144 0 -140 4 -140 -138 0
-117 6 -142 36 -142 28 0 44 32 44 88 l0 56 75 -74 75 -74 0 -156 0 -155 112
-107 113 -108 90 0 90 0 102 -102 102 -102 -39 -43 c-42 -45 -48 -61 -28 -81
21 -21 41 -13 85 30 l43 42 0 -224 0 -224 200 -201 200 -201 0 -58 0 -59 130
-132 130 -131 0 -1207 0 -1207 -50 0 -50 0 0 943 0 943 -70 69 -70 69 0 196 1
195 -98 92 -98 92 38 1 c30 0 37 4 37 20 0 18 -7 20 -70 20 l-71 0 3 -72 c2
-57 6 -73 18 -73 10 0 16 12 18 39 l3 39 90 -89 89 -89 0 -157 c0 -87 -3 -158
-8 -158 -4 0 -123 116 -265 258 l-257 257 0 133 0 133 -50 53 -50 53 0 249 0
249 -180 180 c-99 99 -180 183 -180 187 0 4 15 8 33 10 20 2 32 8 32 18 0 12
-14 15 -70 15 l-70 0 0 -70 c0 -56 3 -70 15 -70 10 0 16 12 18 34 l4 34 179
-179 179 -179 0 -212 c0 -135 -4 -213 -10 -213 -6 0 -10 69 -10 188 l0 187
-148 148 -147 147 -77 0 c-72 0 -80 2 -113 31 -28 25 -35 38 -35 67 l0 35 23
-21 c27 -25 47 -28 47 -8 0 16 -79 96 -95 96 -18 0 -98 -87 -91 -99 11 -17 27
-13 53 11 l23 21 0 -39 c0 -34 7 -46 48 -87 l48 -47 79 0 80 0 128 -128 127
-127 -2 -160 -2 -160 -5 148 -6 148 -121 119 -121 120 -94 0 -94 0 -123 123
c-100 100 -122 127 -122 152 l0 29 30 -29 c24 -23 33 -26 42 -17 10 10 1 24
-40 64 l-52 52 -45 -44 c-25 -24 -45 -50 -45 -56 0 -25 20 -25 45 0 l25 25 0
-37 c0 -34 10 -47 133 -170 l132 -132 95 0 95 0 110 -110 110 -110 -3 -102 -3
-103 -162 3 -162 3 -113 112 -113 112 68 5 c68 5 68 5 68 35 l0 30 -119 3
c-78 2 -123 -1 -132 -9 -10 -9 -14 -40 -14 -124 0 -118 8 -141 47 -133 15 3
19 15 21 72 l3 69 128 -126 128 -127 159 0 159 0 113 -113 112 -112 0 -135 0
-135 102 -102 103 -103 -95 0 -95 0 -163 163 c-89 89 -162 166 -162 170 0 4
32 7 70 7 75 0 96 14 70 45 -17 21 -222 22 -239 1 -8 -9 -11 -52 -9 -127 l3
-114 25 0 c24 0 25 3 30 73 l5 72 170 -170 170 -170 135 0 135 0 228 -228 227
-227 0 -933 0 -932 -1150 0 -1150 0 0 -35 0 -35 1240 0 1240 0 0 -50 0 -50
-1240 0 -1240 0 0 -55 0 -55 1345 0 1345 0 0 -50 0 -50 -1345 0 -1345 0 0 -40
0 -40 2500 0 2500 0 0 40 0 40 -1115 0 -1115 0 0 50 0 50 1115 0 1115 0 0 55
0 55 -1115 0 -1115 0 0 50 0 50 1115 0 1115 0 0 35 0 35 -1113 0 -1114 0 -6
623 c-4 342 -7 762 -7 932 l0 310 108 108 107 107 175 0 175 0 155 155 c85 85
158 155 162 155 5 0 8 -13 8 -28 0 -34 7 -43 26 -35 18 7 20 123 2 141 -14 14
-106 16 -127 3 -24 -15 -5 -41 31 -41 32 0 28 -5 -122 -155 l-155 -155 -145 2
-145 2 144 5 144 6 78 85 79 84 0 65 0 64 24 -23 c23 -21 56 -22 56 -2 0 4
-22 30 -50 57 l-50 49 -49 -48 c-28 -28 -47 -55 -44 -62 7 -20 23 -17 50 8
l23 21 0 -54 c0 -53 0 -54 -72 -126 l-72 -73 -101 0 -100 0 78 78 77 77 0 85
0 85 143 143 142 142 55 0 56 0 74 75 74 75 90 0 89 0 -21 -23 c-12 -13 -22
-29 -22 -35 0 -26 40 -9 80 34 l42 46 -51 52 -51 52 28 27 c19 18 39 27 62 27
l33 0 -21 -23 c-12 -13 -22 -29 -22 -35 0 -25 38 -10 79 32 49 50 48 60 -14
115 l-36 31 72 0 c71 0 72 0 54 -20 -19 -21 -14 -50 8 -50 15 0 97 81 97 96 0
17 -85 94 -103 94 -23 0 -21 -19 5 -47 l21 -23 -99 0 -99 0 -80 -80 c-77 -78
-81 -80 -127 -80 -46 0 -48 1 -48 28 0 22 26 53 128 155 l127 127 64 0 64 0
93 91 93 92 3 -74 c3 -71 4 -74 28 -74 l25 0 3 114 c2 75 -1 118 -9 127 -8 10
-39 14 -118 14 -113 0 -135 -6 -129 -36 3 -16 15 -20 81 -24 l78 -5 -86 -79
c-79 -72 -90 -79 -131 -80 l-44 -1 0 259 0 260 110 111 109 111 3 -75 c3 -65
6 -76 22 -79 30 -6 36 16 36 129 0 79 -4 110 -14 118 -9 8 -52 11 -127 9
l-114 -3 0 -25 c0 -24 3 -25 73 -30 l73 -5 -116 -115 -115 -115 0 -285 0 -286
-70 -69 -70 -69 0 130 0 130 60 59 60 59 0 111 0 111 -70 69 c-80 79 -90 113
-46 154 l24 23 4 -28 c2 -21 9 -30 26 -32 21 -3 22 0 22 66 0 54 -3 71 -16 76
-24 9 -107 7 -123 -3 -24 -15 -5 -41 31 -41 l32 0 -32 -33 c-27 -28 -32 -40
-32 -83 0 -48 2 -52 65 -114 l65 -64 0 -65 0 -66 -80 80 -80 80 0 155 0 155
144 144 c138 138 145 143 148 115 2 -21 8 -29 23 -29 17 0 20 8 23 52 5 82 -7
95 -81 91 -56 -3 -62 -5 -65 -25 -3 -20 1 -23 34 -23 l38 0 -152 -151 -152
-150 0 -167 0 -168 -71 -69 c-88 -88 -96 -101 -73 -126 24 -27 33 -24 81 23
l43 42 0 -394 0 -395 -255 -255 -255 -256 0 -85 0 -84 -230 -230 -230 -230 0
-952 0 -953 -50 0 -50 0 0 1043 0 1042 120 120 120 120 0 129 0 129 50 -47
c43 -40 53 -45 70 -36 33 18 24 39 -50 116 -38 41 -70 77 -70 82 0 4 119 126
265 272 l265 265 0 105 0 104 43 -42 c44 -43 64 -51 85 -30 22 22 13 39 -58
112 l-69 72 -1 269 -1 268 190 192 191 191 0 150 0 150 70 69 70 69 0 -56 c0
-76 29 -108 64 -72 23 23 23 225 0 248 -20 20 -233 23 -252 4 -35 -35 3 -68
76 -68 l57 0 -83 -83 -82 -82 0 -155 0 -155 -190 -190 c-183 -183 -190 -191
-190 -229 l0 -40 -40 39 c-37 36 -40 43 -40 95 l0 55 150 150 150 150 0 151
c0 148 0 151 25 174 l25 23 0 -36 c0 -30 4 -37 20 -37 18 0 20 7 20 69 0 78
-3 81 -80 81 -29 0 -52 -6 -60 -15 -17 -20 -4 -35 32 -35 l32 0 -27 -28 c-27
-28 -27 -29 -27 -178 l0 -149 -150 -150 -150 -150 0 -75 0 -76 60 -59 c57 -57
60 -61 60 -110 l0 -50 -110 110 -110 110 0 50 0 50 185 185 185 185 0 249 0
249 23 -21 c26 -24 42 -28 53 -11 7 12 -73 99 -91 99 -15 0 -95 -83 -95 -98 0
-20 38 -13 54 10 15 21 16 3 16 -217 l0 -240 -165 -165 c-139 -139 -165 -161
-165 -140 0 19 38 63 155 180 l155 155 0 105 0 105 -77 77 c-70 71 -75 78 -51
78 26 0 53 22 41 33 -3 4 -37 7 -75 7 l-68 0 0 -68 c0 -38 3 -72 7 -75 12 -13
33 16 33 46 l0 31 70 -69 70 -69 0 -96 0 -95 -130 -130 -130 -130 0 89 0 89
23 -21 c13 -12 29 -22 35 -22 26 0 9 40 -34 80 l-46 42 -49 -48 c-27 -27 -49
-52 -49 -56 0 -17 31 -20 49 -4 10 9 19 16 22 16 2 0 3 -100 1 -221 l-3 -222
136 -136 135 -137 0 -135 0 -135 -65 -64 c-51 -51 -65 -71 -63 -90 5 -39 38
-37 78 5 18 19 38 35 42 35 4 0 8 -38 8 -84 l0 -85 -265 -264 c-196 -196 -265
-271 -265 -288 0 -15 -24 -49 -65 -94 -68 -74 -78 -97 -45 -115 17 -9 27 -4
65 31 l45 42 0 -109 0 -109 -80 -80 -80 -80 0 335 0 335 135 135 135 135 0
177 c0 98 4 178 9 178 5 0 14 -7 21 -15 15 -18 36 -20 46 -4 7 11 -73 99 -90
99 -15 0 -96 -82 -96 -97 0 -18 30 -16 52 4 17 16 18 10 18 -153 l0 -169 -115
-115 c-107 -107 -115 -113 -115 -86 0 23 16 47 75 107 l75 77 0 98 0 97 24
-22 c24 -23 46 -21 46 3 0 14 -81 96 -95 96 -14 0 -95 -82 -95 -96 0 -24 22
-26 46 -3 l24 22 0 -94 0 -95 -50 -49 -50 -49 0 349 0 349 110 111 110 112 0
424 0 423 145 146 145 147 0 143 0 144 49 -48 c35 -34 57 -48 77 -48 29 0 54
24 54 52 0 19 -221 240 -239 240 -11 0 -146 -121 -213 -192 -31 -31 -35 -55
-15 -82 25 -34 64 -23 123 35 l54 53 0 -124 0 -124 -145 -146 -145 -147 0
-238 0 -239 -65 64 -65 64 -2 383 -3 382 41 -40 c48 -47 87 -51 92 -10 3 18
-13 41 -70 98 -40 41 -81 79 -91 84 -15 9 -32 -4 -103 -73 -68 -66 -84 -87
-82 -108 5 -43 43 -39 94 11 l44 43 0 -182 c0 -100 -3 -182 -7 -182 -4 0 -67
60 -140 132 l-133 133 0 186 0 186 49 -48 c54 -54 65 -58 81 -29 10 18 2 30
-62 96 -40 42 -81 80 -91 86 -15 7 -31 -4 -93 -64z m1737 -1843 c11 -4 26 -1
34 5 12 10 15 9 15 -7 0 -10 -25 -43 -55 -73 l-55 -54 0 -162 c0 -131 -3 -164
-15 -174 -13 -11 -15 20 -15 269 l0 281 36 -40 c19 -21 44 -42 55 -45z m182
-531 c-3 -8 4 -25 17 -40 l23 -24 -44 0 c-40 0 -50 -5 -94 -50 -49 -49 -50
-50 -112 -50 -49 0 -63 3 -63 15 0 12 14 15 63 15 l63 0 74 75 c41 41 76 75
77 75 1 0 0 -7 -4 -16z m-162 -232 l-87 -3 -79 -79 c-57 -58 -87 -80 -105 -80
-21 0 -13 11 65 90 l90 90 71 0 c51 0 75 4 84 15 10 13 15 12 30 -8 l18 -22
-87 -3z m-1161 -3112 l0 -50 -50 0 -50 0 0 50 0 50 50 0 50 0 0 -50z"/>
</g>
</svg>
